<?xml version="1.0" encoding="UTF-8" standalone="no"?>
<!-- Created with Inkscape (http://www.inkscape.org/) -->

<svg
   width="410.39423"
   height="222.32765"
   viewBox="0 0 108.58346 58.824185"
   version="1.1"
   id="svg1"
   xml:space="preserve"
   xmlns="http://www.w3.org/2000/svg"
   xmlns:svg="http://www.w3.org/2000/svg"><defs
     id="defs1" /><g
     id="layer1"
     transform="translate(-11.853852,-36.733925)"><g
       id="g1"
       transform="matrix(1.2726189,0,0,1.2726189,-21.407578,-3.4551201)"
       style="fill:#f5f2ea;fill-opacity:1"><path
         style="baseline-shift:baseline;display:inline;overflow:visible;opacity:1;vector-effect:none;fill:#f5f2ea;fill-opacity:1;stroke-linecap:square;stroke-linejoin:round;stroke-miterlimit:3.8;enable-background:accumulate;stop-color:#000000;stop-opacity:1"
         d="m 67.658203,62.404297 c -4.243151,0 -7.699219,3.456068 -7.699219,7.699219 0,4.243151 3.456068,7.699218 7.699219,7.699218 4.243152,0 7.699219,-3.456067 7.699219,-7.699218 0,-4.243152 -3.456067,-7.699219 -7.699219,-7.699219 z m 0,1.521484 c 3.420964,0 6.177735,2.756771 6.177734,6.177735 10e-7,3.420963 -2.75677,6.177734 -6.177734,6.177734 -3.420963,0 -6.177734,-2.756771 -6.177734,-6.177734 0,-3.420964 2.756771,-6.177734 6.177734,-6.177735 z"
         id="path1" /><g
         id="path3"
         style="opacity:1;fill:#f5f2ea;fill-opacity:1"><path
           style="baseline-shift:baseline;display:inline;overflow:visible;vector-effect:none;fill:#f5f2ea;fill-opacity:1;stroke-miterlimit:85.1;enable-background:accumulate;stop-color:#000000;stop-opacity:1"
           d="m 72.090683,66.376606 a 6.3160128,6.3160128 0 0 1 0.474098,2.396899 6.3160128,6.3160128 0 0 1 -6.31581,6.316473 6.3160128,6.3160128 0 0 1 -1.991477,-0.336755 5.8140782,5.8140782 0 0 0 3.246056,1.005641 5.8140782,5.8140782 0 0 0 5.813979,-5.813979 5.8140782,5.8140782 0 0 0 -1.226846,-3.568279 z"
           id="path2" /><path
           style="baseline-shift:baseline;display:inline;overflow:visible;vector-effect:none;fill:#f5f2ea;fill-opacity:1;stroke-miterlimit:85.1;enable-background:accumulate;stop-color:#000000;stop-opacity:1"
           d="m 72.027344,66.269531 0.04687,0.113281 c 0.311702,0.758457 0.474097,1.570617 0.474609,2.390625 2.54e-4,3.478537 -2.820543,6.297638 -6.298828,6.298829 -0.675779,-0.0047 -1.346581,-0.11817 -1.986328,-0.335938 l -0.119141,-0.03906 0.103516,0.07031 c 0.0012,8.28e-4 0.0027,0.0011 0.0039,0.002 0.959727,0.651304 2.092036,1.001389 3.251953,1.00586 3.220085,-5.5e-5 5.830023,-2.609994 5.830078,-5.830079 -8.79e-4,-1.295022 -0.433667,-2.551925 -1.228515,-3.574218 -9.06e-4,-0.0012 -0.001,-0.0027 -0.002,-0.0039 z m 0.09961,0.205078 c 0.752503,1.002117 1.172976,2.215681 1.173828,3.470703 -5.4e-5,3.201814 -2.595061,5.796821 -5.796875,5.796875 -1.114329,-0.0043 -2.195889,-0.345006 -3.128906,-0.951171 0.606999,0.193264 1.235559,0.311986 1.873047,0.316406 3.497474,-1.12e-4 6.334239,-2.836511 6.333984,-6.333985 -4.93e-4,-0.788823 -0.167793,-1.564849 -0.455078,-2.298828 z"
           id="path4" /></g><path
         id="rect8"
         style="fill:#f5f2ea;fill-opacity:1;stroke-width:1.55481;stroke-miterlimit:85.1"
         d="m 66.898285,32.653324 h 1.521341 v 30.426819 h -1.521341 z" /><path
         style="baseline-shift:baseline;display:inline;overflow:visible;opacity:1;vector-effect:none;fill:#f5f2ea;fill-opacity:1;stroke-linecap:square;stroke-linejoin:round;stroke-miterlimit:3.8;enable-background:accumulate;stop-color:#000000;stop-opacity:1"
         d="m 83.056641,62.404297 c -4.243152,0 -7.699219,3.456067 -7.699219,7.699219 0,4.243151 3.456067,7.699218 7.699219,7.699218 4.243151,0 7.699218,-3.456067 7.699218,-7.699218 0,-4.243152 -3.456067,-7.699219 -7.699218,-7.699219 z m 0,1.521484 c 3.420963,0 6.177734,2.756771 6.177734,6.177735 0,3.420963 -2.756771,6.177734 -6.177734,6.177734 -3.420964,0 -6.177735,-2.756771 -6.177735,-6.177734 0,-3.420964 2.756771,-6.177735 6.177735,-6.177735 z"
         id="circle9" /><g
         id="path9"
         style="opacity:1;fill:#f5f2ea;fill-opacity:1"><path
           style="baseline-shift:baseline;display:inline;overflow:visible;vector-effect:none;fill:#f5f2ea;fill-opacity:1;stroke-miterlimit:85.1;enable-background:accumulate;stop-color:#000000;stop-opacity:1"
           d="m 87.489127,66.376556 a 6.3160128,6.3160128 0 0 1 0.474098,2.396899 6.3160128,6.3160128 0 0 1 -6.31581,6.316473 6.3160128,6.3160128 0 0 1 -1.991477,-0.336755 5.8140782,5.8140782 0 0 0 3.246056,1.005641 5.8140782,5.8140782 0 0 0 5.813979,-5.813979 5.8140782,5.8140782 0 0 0 -1.226846,-3.568279 z"
           id="path5" /><path
           style="baseline-shift:baseline;display:inline;overflow:visible;vector-effect:none;fill:#f5f2ea;fill-opacity:1;stroke-miterlimit:85.1;enable-background:accumulate;stop-color:#000000;stop-opacity:1"
           d="m 87.425781,66.269531 0.04687,0.113281 c 0.311702,0.758457 0.474097,1.570617 0.47461,2.390625 2.53e-4,3.478537 -2.820544,6.297638 -6.298829,6.298829 -0.675778,-0.0047 -1.346581,-0.11817 -1.986328,-0.335938 l -0.11914,-0.03906 0.103515,0.07031 c 0.0012,8.28e-4 0.0027,0.0011 0.0039,0.002 0.959726,0.651304 2.092036,1.001389 3.251953,1.00586 3.220084,-5.5e-5 5.830023,-2.609994 5.830078,-5.830079 -8.79e-4,-1.294443 -0.434347,-2.552172 -1.228516,-3.574218 -0.0013,-0.0016 -6.91e-4,-0.0042 -0.002,-0.0059 z m 0.09961,0.205078 c 0.752502,1.002117 1.172975,2.215681 1.173828,3.470703 -5.5e-5,3.201814 -2.595061,5.796821 -5.796875,5.796875 -1.114329,-0.0043 -2.19589,-0.345006 -3.128907,-0.951171 0.607,0.193264 1.23556,0.311986 1.873047,0.316406 3.497474,-1.12e-4 6.33424,-2.836511 6.333985,-6.333985 -4.93e-4,-0.788823 -0.167794,-1.564849 -0.455078,-2.298828 z"
           id="path6" /></g><path
         id="rect9"
         style="fill:#f5f2ea;fill-opacity:1;stroke-width:1.55481;stroke-miterlimit:85.1"
         d="m 82.29673,32.653275 h 1.521341 V 63.080093 H 82.29673 Z" /><path
         style="baseline-shift:baseline;display:inline;overflow:visible;opacity:1;vector-effect:none;fill:#f5f2ea;fill-opacity:1;stroke-linecap:square;stroke-linejoin:round;stroke-miterlimit:3.8;enable-background:accumulate;stop-color:#000000;stop-opacity:1"
         d="m 98.455078,62.404297 c -4.243151,0 -7.699219,3.456067 -7.699219,7.699219 0,4.243151 3.456068,7.699218 7.699219,7.699218 4.243152,-3e-6 7.699222,-3.456069 7.699222,-7.699218 0,-4.24315 -3.45607,-7.699216 -7.699222,-7.699219 z m 0,1.521484 c 3.420962,3e-6 6.177732,2.756773 6.177732,6.177735 0,3.420962 -2.75677,6.177732 -6.177732,6.177734 -3.420964,0 -6.177734,-2.756771 -6.177734,-6.177734 0,-3.420964 2.75677,-6.177735 6.177734,-6.177735 z"
         id="circle10" /><g
         id="path10"
         style="opacity:1;fill:#f5f2ea;fill-opacity:1"><path
           style="baseline-shift:baseline;display:inline;overflow:visible;vector-effect:none;fill:#f5f2ea;fill-opacity:1;stroke-miterlimit:85.1;enable-background:accumulate;stop-color:#000000;stop-opacity:1"
           d="m 102.88757,66.376506 a 6.3160128,6.3160128 0 0 1 0.4741,2.396899 6.3160128,6.3160128 0 0 1 -6.315813,6.316473 6.3160128,6.3160128 0 0 1 -1.991477,-0.336755 5.8140782,5.8140782 0 0 0 3.246056,1.005641 5.8140782,5.8140782 0 0 0 5.813984,-5.813979 5.8140782,5.8140782 0 0 0 -1.22685,-3.568279 z"
           id="path7" /><path
           style="baseline-shift:baseline;display:inline;overflow:visible;vector-effect:none;fill:#f5f2ea;fill-opacity:1;stroke-miterlimit:85.1;enable-background:accumulate;stop-color:#000000;stop-opacity:1"
           d="m 102.82422,66.269531 0.0469,0.113281 c 0.31171,0.758457 0.4741,1.570617 0.47461,2.390625 2.6e-4,3.478539 -2.82054,6.29764 -6.298825,6.298829 -0.675779,-0.0047 -1.346581,-0.11817 -1.986328,-0.335938 l -0.119141,-0.03906 0.103516,0.07031 c 0.0012,8.28e-4 0.0027,0.0011 0.0039,0.002 0.959727,0.651304 2.092036,1.001389 3.251953,1.00586 3.220085,-5.3e-5 5.830015,-2.609992 5.830075,-5.830079 -8.8e-4,-1.295024 -0.43367,-2.553878 -1.22852,-3.576171 -9e-4,-0.0012 -0.001,-0.0027 -0.002,-0.0039 z m 0.0996,0.207031 c 0.75184,1.001855 1.17297,2.214308 1.17383,3.46875 -6e-5,3.201816 -2.59506,5.796824 -5.796879,5.796875 -1.114329,-0.0043 -2.195889,-0.345006 -3.128906,-0.951171 0.606999,0.193264 1.235559,0.311986 1.873047,0.316406 3.497478,-1.11e-4 6.334238,-2.83651 6.333988,-6.333985 -5e-4,-0.787562 -0.1687,-1.563917 -0.45508,-2.296875 z"
           id="path8" /></g><path
         id="rect10"
         style="fill:#f5f2ea;fill-opacity:1;stroke-width:1.55481;stroke-miterlimit:85.1"
         d="m 97.695168,32.653225 h 1.521341 v 30.426819 h -1.521341 z" /><path
         style="baseline-shift:baseline;display:inline;overflow:visible;opacity:1;vector-effect:none;fill:#f5f2ea;fill-opacity:1;stroke-linecap:square;stroke-linejoin:round;stroke-miterlimit:3.8;enable-background:accumulate;stop-color:#000000;stop-opacity:1"
         d="m 61.976562,31.451172 c -4.243151,0 -7.699218,3.456067 -7.699218,7.699219 0,4.243151 3.456067,7.699218 7.699218,7.699218 4.243152,10e-7 7.699219,-3.456067 7.699219,-7.699218 0,-4.243152 -3.456067,-7.69922 -7.699219,-7.699219 z m 0,1.521484 c 3.420964,0 6.177735,2.756771 6.177735,6.177735 0,3.420964 -2.756771,6.177734 -6.177735,6.177734 -3.420963,0 -6.177734,-2.756771 -6.177734,-6.177734 0,-3.420964 2.756771,-6.177735 6.177734,-6.177735 z"
         id="circle12"
         transform="rotate(30.233843)" /><g
         id="path12"
         style="opacity:1;fill:#f5f2ea;fill-opacity:1"><path
           style="baseline-shift:baseline;display:inline;overflow:visible;vector-effect:none;fill:#f5f2ea;fill-opacity:1;stroke-miterlimit:85.1;enable-background:accumulate;stop-color:#000000;stop-opacity:1"
           d="m 39.538716,64.043228 a 6.3160133,6.3160133 0 0 1 -0.797301,2.30959 6.3160133,6.3160133 0 0 1 -8.637255,2.277089 6.3160133,6.3160133 0 0 1 -1.551025,-1.293719 5.8140786,5.8140786 0 0 0 2.298149,2.50334 5.8140786,5.8140786 0 0 0 7.950663,-2.095633 5.8140786,5.8140786 0 0 0 0.736769,-3.700667 z"
           id="path11" /><path
           style="baseline-shift:baseline;display:inline;overflow:visible;vector-effect:none;fill:#f5f2ea;fill-opacity:1;stroke-miterlimit:85.1;enable-background:accumulate;stop-color:#000000;stop-opacity:1"
           d="m 39.539062,63.917969 -0.01758,0.123047 c -0.112602,0.812241 -0.382465,1.594007 -0.794922,2.302734 -1.751665,3.006081 -5.607271,4.023272 -8.613281,2.271484 -0.581498,-0.344323 -1.1038,-0.780737 -1.546875,-1.291015 l -0.08203,-0.09375 0.05273,0.113281 c 7.89e-4,0.0016 0.0031,0.0023 0.0039,0.0039 0.501261,1.045537 1.301196,1.918124 2.300781,2.50586 2.782109,1.621363 6.353152,0.680491 7.974609,-2.101563 0.651402,-1.119449 0.910382,-2.423413 0.738281,-3.707031 -1.75e-4,-0.0013 1.77e-4,-0.0026 0,-0.0039 z m -0.02148,0.232422 c 0.144249,1.243066 -0.100119,2.502667 -0.730469,3.585937 -1.612257,2.766269 -5.161411,3.700054 -7.927734,2.087891 -0.961057,-0.565082 -1.723751,-1.404283 -2.224609,-2.398438 0.427556,0.473538 0.911557,0.893445 1.460937,1.21875 3.021796,1.760988 6.899292,0.738665 8.660156,-2.283203 0.395749,-0.680018 0.639917,-1.434295 0.761719,-2.210937 z"
           id="path13" /></g><path
         id="rect12"
         style="fill:#f5f2ea;fill-opacity:1;stroke-width:1.55481;stroke-miterlimit:85.1"
         transform="rotate(30.233843)"
         d="m 61.21587,1.6996816 h 1.521341 V 32.126502 H 61.21587 Z" /><path
         id="rect18"
         style="fill:#f5f2ea;fill-opacity:1;stroke-width:1.1282;stroke-miterlimit:85.1"
         d="m 65.59288,31.579796 h 16.778847 c 16.114374,0 29.087323,0.859528 29.087323,1.927194 0,1.067665 -12.972949,1.927194 -29.087323,1.927194 H 65.59288 c -16.114374,0 -29.087318,-0.859529 -29.087318,-1.927194 0,-1.067666 12.972944,-1.927194 29.087318,-1.927194 z" /></g></g></svg>
