<?xml version="1.0" encoding="UTF-8" standalone="no"?>
<!-- Created with Inkscape (http://www.inkscape.org/) -->

<svg
   width="410.39233"
   height="222.32622"
   viewBox="0 0 108.58296 58.823805"
   version="1.1"
   id="svg1"
   xml:space="preserve"
   xmlns="http://www.w3.org/2000/svg"
   xmlns:svg="http://www.w3.org/2000/svg"><defs
     id="defs1" /><g
     id="layer1"
     transform="translate(-11.854347,-36.733925)"><g
       id="g1"
       transform="matrix(1.2726189,0,0,1.2726189,-21.407578,-3.4551201)"><circle
         style="fill:none;fill-opacity:1;stroke:#2c3c5b;stroke-width:1.52133;stroke-linecap:square;stroke-linejoin:round;stroke-miterlimit:3.8;stroke-dasharray:none;stroke-opacity:1"
         id="path1"
         cx="67.658958"
         cy="70.103218"
         r="6.9385538" /><path
         id="path3"
         style="fill:#2c3c5b;fill-opacity:1;stroke:#2c3c5b;stroke-width:0.0338075;stroke-linecap:butt;stroke-linejoin:miter;stroke-miterlimit:85.1;stroke-dasharray:none;stroke-opacity:1"
         d="m 72.090683,66.376606 a 6.3160128,6.3160128 0 0 1 0.474098,2.396899 6.3160128,6.3160128 0 0 1 -6.31581,6.316473 6.3160128,6.3160128 0 0 1 -1.991477,-0.336755 5.8140782,5.8140782 0 0 0 3.246056,1.005641 5.8140782,5.8140782 0 0 0 5.813979,-5.813979 5.8140782,5.8140782 0 0 0 -1.226846,-3.568279 z" /><rect
         style="fill:#2c3c5b;fill-opacity:1;stroke:none;stroke-width:1.55481;stroke-linecap:butt;stroke-linejoin:miter;stroke-miterlimit:85.1;stroke-dasharray:none;stroke-opacity:1"
         id="rect8"
         width="1.521341"
         height="30.426819"
         x="66.898285"
         y="32.653324" /><circle
         style="fill:none;fill-opacity:1;stroke:#2c3c5b;stroke-width:1.52133;stroke-linecap:square;stroke-linejoin:round;stroke-miterlimit:3.8;stroke-dasharray:none;stroke-opacity:1"
         id="circle9"
         cx="83.057396"
         cy="70.103172"
         r="6.9385538" /><path
         id="path9"
         style="fill:#2c3c5b;fill-opacity:1;stroke:#2c3c5b;stroke-width:0.0338075;stroke-linecap:butt;stroke-linejoin:miter;stroke-miterlimit:85.1;stroke-dasharray:none;stroke-opacity:1"
         d="m 87.489127,66.376556 a 6.3160128,6.3160128 0 0 1 0.474098,2.396899 6.3160128,6.3160128 0 0 1 -6.31581,6.316473 6.3160128,6.3160128 0 0 1 -1.991477,-0.336755 5.8140782,5.8140782 0 0 0 3.246056,1.005641 5.8140782,5.8140782 0 0 0 5.813979,-5.813979 5.8140782,5.8140782 0 0 0 -1.226846,-3.568279 z" /><rect
         style="fill:#2c3c5b;fill-opacity:1;stroke:none;stroke-width:1.55481;stroke-linecap:butt;stroke-linejoin:miter;stroke-miterlimit:85.1;stroke-dasharray:none;stroke-opacity:1"
         id="rect9"
         width="1.521341"
         height="30.426819"
         x="82.29673"
         y="32.653275" /><circle
         style="fill:none;fill-opacity:1;stroke:#2c3c5b;stroke-width:1.52133;stroke-linecap:square;stroke-linejoin:round;stroke-miterlimit:3.8;stroke-dasharray:none;stroke-opacity:1"
         id="circle10"
         cx="98.455841"
         cy="70.103119"
         r="6.9385538" /><path
         id="path10"
         style="fill:#2c3c5b;fill-opacity:1;stroke:#2c3c5b;stroke-width:0.0338075;stroke-linecap:butt;stroke-linejoin:miter;stroke-miterlimit:85.1;stroke-dasharray:none;stroke-opacity:1"
         d="m 102.88757,66.376506 a 6.3160128,6.3160128 0 0 1 0.4741,2.396899 6.3160128,6.3160128 0 0 1 -6.315813,6.316473 6.3160128,6.3160128 0 0 1 -1.991477,-0.336755 5.8140782,5.8140782 0 0 0 3.246056,1.005641 5.8140782,5.8140782 0 0 0 5.813984,-5.813979 5.8140782,5.8140782 0 0 0 -1.22685,-3.568279 z" /><rect
         style="fill:#2c3c5b;fill-opacity:1;stroke:none;stroke-width:1.55481;stroke-linecap:butt;stroke-linejoin:miter;stroke-miterlimit:85.1;stroke-dasharray:none;stroke-opacity:1"
         id="rect10"
         width="1.521341"
         height="30.426819"
         x="97.695168"
         y="32.653225" /><circle
         style="fill:none;fill-opacity:1;stroke:#2c3c5b;stroke-width:1.52133;stroke-linecap:square;stroke-linejoin:round;stroke-miterlimit:3.8;stroke-dasharray:none;stroke-opacity:1"
         id="circle12"
         cx="61.976543"
         cy="39.149582"
         r="6.9385543"
         transform="rotate(30.233843)" /><path
         id="path12"
         style="fill:#2c3c5b;fill-opacity:1;stroke:#2c3c5b;stroke-width:0.0338075;stroke-linecap:butt;stroke-linejoin:miter;stroke-miterlimit:85.1;stroke-dasharray:none;stroke-opacity:1"
         d="m 39.538716,64.043228 a 6.3160133,6.3160133 0 0 1 -0.797301,2.30959 6.3160133,6.3160133 0 0 1 -8.637255,2.277089 6.3160133,6.3160133 0 0 1 -1.551025,-1.293719 5.8140786,5.8140786 0 0 0 2.298149,2.50334 5.8140786,5.8140786 0 0 0 7.950663,-2.095633 5.8140786,5.8140786 0 0 0 0.736769,-3.700667 z" /><rect
         style="fill:#2c3c5b;fill-opacity:1;stroke:none;stroke-width:1.55481;stroke-linecap:butt;stroke-linejoin:miter;stroke-miterlimit:85.1;stroke-dasharray:none;stroke-opacity:1"
         id="rect12"
         width="1.521341"
         height="30.426821"
         x="61.21587"
         y="1.6996816"
         transform="rotate(30.233843)" /><rect
         style="fill:#2c3c5b;fill-opacity:1;stroke:none;stroke-width:1.1282;stroke-linecap:butt;stroke-linejoin:miter;stroke-miterlimit:85.1;stroke-dasharray:none;stroke-opacity:1"
         id="rect18"
         width="74.953484"
         height="3.8543882"
         x="36.505562"
         y="31.579796"
         ry="1.9271941"
         rx="29.087318" /></g></g></svg>
