<?xml version="1.0" encoding="UTF-8" standalone="no"?>
<!-- Created with Inkscape (http://www.inkscape.org/) -->

<svg
   width="458.89996"
   height="380.33398"
   viewBox="0 0 121.41727 100.63002"
   version="1.1"
   id="svg1"
   xml:space="preserve"
   xmlns="http://www.w3.org/2000/svg"
   xmlns:svg="http://www.w3.org/2000/svg"><defs
     id="defs1" /><rect
     style="fill:#ffffff;fill-opacity:1;stroke:#2c3c5b;stroke-width:1.19062;stroke-linecap:butt;stroke-linejoin:miter;stroke-miterlimit:85.1;stroke-dasharray:none;stroke-opacity:1"
     id="rect20"
     width="120.22665"
     height="99.4394"
     x="0.59531033"
     y="0.59530914"
     rx="19.862606"
     ry="19.862606" /><circle
     style="fill:none;fill-opacity:1;stroke:#2c3c5b;stroke-width:1.52134;stroke-linecap:square;stroke-linejoin:round;stroke-miterlimit:3.8;stroke-dasharray:none;stroke-opacity:1"
     id="path1"
     cx="62.221767"
     cy="54.272408"
     r="6.9385543" /><path
     id="path3"
     style="fill:#2c3c5b;fill-opacity:1;stroke:#2c3c5b;stroke-width:0.0338076;stroke-linecap:butt;stroke-linejoin:miter;stroke-miterlimit:85.1;stroke-dasharray:none;stroke-opacity:1"
     d="m 66.653494,50.545799 a 6.3160131,6.3160131 0 0 1 0.474097,2.396896 6.3160131,6.3160131 0 0 1 -6.315809,6.316474 6.3160131,6.3160131 0 0 1 -1.991478,-0.336762 5.8140785,5.8140785 0 0 0 3.246056,1.005651 5.8140785,5.8140785 0 0 0 5.81398,-5.813984 5.8140785,5.8140785 0 0 0 -1.226846,-3.568275 z" /><rect
     style="fill:#2c3c5b;fill-opacity:1;stroke:none;stroke-width:1.55481;stroke-linecap:butt;stroke-linejoin:miter;stroke-miterlimit:85.1;stroke-dasharray:none;stroke-opacity:1"
     id="rect8"
     width="1.521341"
     height="30.426821"
     x="61.461094"
     y="16.822521" /><circle
     style="fill:none;fill-opacity:1;stroke:#2c3c5b;stroke-width:1.52134;stroke-linecap:square;stroke-linejoin:round;stroke-miterlimit:3.8;stroke-dasharray:none;stroke-opacity:1"
     id="circle9"
     cx="77.620201"
     cy="54.272362"
     r="6.9385543" /><path
     id="path9"
     style="fill:#2c3c5b;fill-opacity:1;stroke:#2c3c5b;stroke-width:0.0338076;stroke-linecap:butt;stroke-linejoin:miter;stroke-miterlimit:85.1;stroke-dasharray:none;stroke-opacity:1"
     d="m 82.051937,50.54574 a 6.3160131,6.3160131 0 0 1 0.474092,2.396912 6.3160131,6.3160131 0 0 1 -6.315801,6.316473 6.3160131,6.3160131 0 0 1 -1.991486,-0.336761 5.8140785,5.8140785 0 0 0 3.246059,1.005635 5.8140785,5.8140785 0 0 0 5.813985,-5.813969 5.8140785,5.8140785 0 0 0 -1.226849,-3.56829 z" /><rect
     style="fill:#2c3c5b;fill-opacity:1;stroke:none;stroke-width:1.55481;stroke-linecap:butt;stroke-linejoin:miter;stroke-miterlimit:85.1;stroke-dasharray:none;stroke-opacity:1"
     id="rect9"
     width="1.521341"
     height="30.426821"
     x="76.859535"
     y="16.822453" /><circle
     style="fill:none;fill-opacity:1;stroke:#2c3c5b;stroke-width:1.52134;stroke-linecap:square;stroke-linejoin:round;stroke-miterlimit:3.8;stroke-dasharray:none;stroke-opacity:1"
     id="circle10"
     cx="93.018646"
     cy="54.272316"
     r="6.9385543" /><path
     id="path10"
     style="fill:#2c3c5b;fill-opacity:1;stroke:#2c3c5b;stroke-width:0.0338076;stroke-linecap:butt;stroke-linejoin:miter;stroke-miterlimit:85.1;stroke-dasharray:none;stroke-opacity:1"
     d="m 97.450378,50.545697 a 6.3160131,6.3160131 0 0 1 0.47411,2.396896 6.3160131,6.3160131 0 0 1 -6.315822,6.316474 6.3160131,6.3160131 0 0 1 -1.99147,-0.336762 5.8140785,5.8140785 0 0 0 3.246059,1.005651 5.8140785,5.8140785 0 0 0 5.813973,-5.813984 5.8140785,5.8140785 0 0 0 -1.22685,-3.568275 z" /><rect
     style="fill:#2c3c5b;fill-opacity:1;stroke:none;stroke-width:1.55481;stroke-linecap:butt;stroke-linejoin:miter;stroke-miterlimit:85.1;stroke-dasharray:none;stroke-opacity:1"
     id="rect10"
     width="1.521341"
     height="30.426821"
     x="92.257988"
     y="16.822403" /><circle
     style="fill:none;fill-opacity:1;stroke:#2c3c5b;stroke-width:1.52134;stroke-linecap:square;stroke-linejoin:round;stroke-miterlimit:3.8;stroke-dasharray:none;stroke-opacity:1"
     id="circle12"
     cx="49.307644"
     cy="28.2099"
     r="6.9385543"
     transform="rotate(30.233844)" /><path
     id="path12"
     style="fill:#2c3c5b;fill-opacity:1;stroke:#2c3c5b;stroke-width:0.0338076;stroke-linecap:butt;stroke-linejoin:miter;stroke-miterlimit:85.1;stroke-dasharray:none;stroke-opacity:1"
     d="m 34.101519,48.212409 a 6.316013,6.316013 0 0 1 -0.7973,2.309593 6.316013,6.316013 0 0 1 -8.637256,2.277091 6.316013,6.316013 0 0 1 -1.551025,-1.293722 5.8140783,5.8140783 0 0 0 2.29815,2.503346 5.8140783,5.8140783 0 0 0 7.950662,-2.095634 5.8140783,5.8140783 0 0 0 0.736769,-3.700674 z" /><rect
     style="fill:#2c3c5b;fill-opacity:1;stroke:none;stroke-width:1.55481;stroke-linecap:butt;stroke-linejoin:miter;stroke-miterlimit:85.1;stroke-dasharray:none;stroke-opacity:1"
     id="rect12"
     width="1.521341"
     height="30.426821"
     x="48.546963"
     y="-9.2399969"
     transform="rotate(30.233844)" /><text
     xml:space="preserve"
     style="font-size:21.7235px;line-height:0;font-family:Futura;-inkscape-font-specification:Futura;text-align:start;letter-spacing:0.944971px;writing-mode:lr-tb;direction:ltr;text-anchor:start;fill:#0ac5a8;fill-opacity:1;stroke:none;stroke-width:0.977556;stroke-linecap:butt;stroke-linejoin:miter;stroke-miterlimit:85.1;stroke-dasharray:none;stroke-opacity:1"
     x="10.15817"
     y="84.685555"
     id="text16"><tspan
       id="tspan16"
       style="font-style:normal;font-variant:normal;font-weight:800;font-stretch:normal;font-size:21.7235px;font-family:'Montserrat Alternates';-inkscape-font-specification:'Montserrat Alternates Ultra-Bold';fill:#0ac5a8;fill-opacity:1;stroke-width:0.977556"
       x="10.15817"
       y="84.685555"><tspan
   style="font-style:normal;font-variant:normal;font-weight:800;font-stretch:normal;font-size:21.7235px;font-family:'Montserrat Alternates';-inkscape-font-specification:'Montserrat Alternates Ultra-Bold';fill:#2c3c5b;fill-opacity:1;stroke-width:0.977556"
   id="tspan17">Klas</tspan>Lab</tspan></text><rect
     style="fill:#2c3c5b;fill-opacity:1;stroke:none;stroke-width:1.1282;stroke-linecap:butt;stroke-linejoin:miter;stroke-miterlimit:85.1;stroke-dasharray:none;stroke-opacity:1"
     id="rect18"
     width="74.953484"
     height="3.8543882"
     x="31.068371"
     y="15.748992"
     ry="1.9271941"
     rx="37.017075" /></svg>
