<?xml version="1.0" encoding="UTF-8" standalone="no"?>
<!-- Created with Inkscape (http://www.inkscape.org/) -->

<svg
   width="500.00003"
   height="500.00003"
   viewBox="0 0 132.29166 132.29166"
   version="1.1"
   id="svg1"
   xml:space="preserve"
   xmlns:inkscape="http://www.inkscape.org/namespaces/inkscape"
   xmlns:sodipodi="http://sodipodi.sourceforge.net/DTD/sodipodi-0.dtd"
   xmlns="http://www.w3.org/2000/svg"
   xmlns:svg="http://www.w3.org/2000/svg"><sodipodi:namedview
     id="namedview1"
     pagecolor="#ffffff"
     bordercolor="#000000"
     borderopacity="0.25"
     inkscape:showpageshadow="2"
     inkscape:pageopacity="0.0"
     inkscape:pagecheckerboard="0"
     inkscape:deskcolor="#d1d1d1"
     inkscape:document-units="px"
     inkscape:export-bgcolor="#ffffffff"><inkscape:page
       x="0"
       y="0"
       width="132.29166"
       height="132.29166"
       id="page2"
       margin="0"
       bleed="0" /></sodipodi:namedview><defs
     id="defs1" /><g
     inkscape:label="Layer 1"
     inkscape:groupmode="layer"
     id="layer1"><g
       id="g12"
       transform="matrix(1.5562687,0,0,1.5562687,-47.985323,-151.56563)"><g
         id="g14"
         transform="translate(6.0255297)"><g
           id="g13"
           transform="rotate(-0.08013001,6605.6952,19056.869)"
           inkscape:transform-center-x="0.85755306"
           inkscape:transform-center-y="27.03375"><g
             id="g20"
             transform="translate(0.00196582,-1.4043569)"><g
               id="g19"
               transform="matrix(0.82104506,0,0,0.82104506,16.781282,23.334719)"><g
                 id="g18"
                 transform="translate(-0.01052848,7.528226)"><g
                   id="g16"
                   transform="translate(7.2296938,-14.27085)"><g
                     id="g9"
                     transform="rotate(0.08013001,75.749307,8730.012)"><circle
                       style="fill:none;fill-opacity:1;stroke:#2c3c5b;stroke-width:1.19062;stroke-linecap:square;stroke-linejoin:round;stroke-miterlimit:3.8;stroke-dasharray:none;stroke-opacity:1"
                       id="path1"
                       cx="75.721397"
                       cy="142.39243"
                       r="5.4302197" /><path
                       id="path3"
                       style="fill:#2c3c5b;fill-opacity:1;stroke:#2c3c5b;stroke-width:0.0264583;stroke-linecap:butt;stroke-linejoin:miter;stroke-miterlimit:85.1;stroke-dasharray:none;stroke-opacity:1"
                       d="m 79.189736,139.47592 a 4.9430094,4.9430094 0 0 1 0.371037,1.87585 4.9430094,4.9430094 0 0 1 -4.942851,4.94337 4.9430094,4.9430094 0 0 1 -1.558561,-0.26355 4.5501876,4.5501876 0 0 0 2.540414,0.78703 4.5501876,4.5501876 0 0 0 4.55011,-4.55011 4.5501876,4.5501876 0 0 0 -0.960149,-2.79259 z" /><rect
                       style="fill:#2c3c5b;fill-opacity:1;stroke:none;stroke-width:1.21682;stroke-linecap:butt;stroke-linejoin:miter;stroke-miterlimit:85.1;stroke-dasharray:none;stroke-opacity:1"
                       id="rect8"
                       width="1.190625"
                       height="23.8125"
                       x="75.126083"
                       y="113.08356" /></g><g
                     id="g10"
                     transform="rotate(0.08013001,69.752241,17346.943)"><circle
                       style="fill:none;fill-opacity:1;stroke:#2c3c5b;stroke-width:1.19062;stroke-linecap:square;stroke-linejoin:round;stroke-miterlimit:3.8;stroke-dasharray:none;stroke-opacity:1"
                       id="circle9"
                       cx="75.721397"
                       cy="142.39243"
                       r="5.4302197" /><path
                       id="path9"
                       style="fill:#2c3c5b;fill-opacity:1;stroke:#2c3c5b;stroke-width:0.0264583;stroke-linecap:butt;stroke-linejoin:miter;stroke-miterlimit:85.1;stroke-dasharray:none;stroke-opacity:1"
                       d="m 79.189736,139.47592 a 4.9430094,4.9430094 0 0 1 0.371037,1.87585 4.9430094,4.9430094 0 0 1 -4.942851,4.94337 4.9430094,4.9430094 0 0 1 -1.558561,-0.26355 4.5501876,4.5501876 0 0 0 2.540414,0.78703 4.5501876,4.5501876 0 0 0 4.55011,-4.55011 4.5501876,4.5501876 0 0 0 -0.960149,-2.79259 z" /><rect
                       style="fill:#2c3c5b;fill-opacity:1;stroke:none;stroke-width:1.21682;stroke-linecap:butt;stroke-linejoin:miter;stroke-miterlimit:85.1;stroke-dasharray:none;stroke-opacity:1"
                       id="rect9"
                       width="1.190625"
                       height="23.8125"
                       x="75.126083"
                       y="113.08356" /></g><g
                     id="g11"
                     transform="rotate(0.08013001,63.755177,25963.873)"><circle
                       style="fill:none;fill-opacity:1;stroke:#2c3c5b;stroke-width:1.19062;stroke-linecap:square;stroke-linejoin:round;stroke-miterlimit:3.8;stroke-dasharray:none;stroke-opacity:1"
                       id="circle10"
                       cx="75.721397"
                       cy="142.39243"
                       r="5.4302197" /><path
                       id="path10"
                       style="fill:#2c3c5b;fill-opacity:1;stroke:#2c3c5b;stroke-width:0.0264583;stroke-linecap:butt;stroke-linejoin:miter;stroke-miterlimit:85.1;stroke-dasharray:none;stroke-opacity:1"
                       d="m 79.189736,139.47592 a 4.9430094,4.9430094 0 0 1 0.371037,1.87585 4.9430094,4.9430094 0 0 1 -4.942851,4.94337 4.9430094,4.9430094 0 0 1 -1.558561,-0.26355 4.5501876,4.5501876 0 0 0 2.540414,0.78703 4.5501876,4.5501876 0 0 0 4.55011,-4.55011 4.5501876,4.5501876 0 0 0 -0.960149,-2.79259 z" /><rect
                       style="fill:#2c3c5b;fill-opacity:1;stroke:none;stroke-width:1.21682;stroke-linecap:butt;stroke-linejoin:miter;stroke-miterlimit:85.1;stroke-dasharray:none;stroke-opacity:1"
                       id="rect10"
                       width="1.190625"
                       height="23.8125"
                       x="75.126083"
                       y="113.08356" /></g><g
                     id="g15"
                     inkscape:transform-center-y="23.713325"
                     inkscape:transform-center-x="15.285934"
                     transform="rotate(30.313974,75.872287,113.70934)"><circle
                       style="fill:none;fill-opacity:1;stroke:#2c3c5b;stroke-width:1.19062;stroke-linecap:square;stroke-linejoin:round;stroke-miterlimit:3.8;stroke-dasharray:none;stroke-opacity:1"
                       id="circle12"
                       cx="75.721397"
                       cy="142.39243"
                       r="5.4302197" /><path
                       id="path12"
                       style="fill:#2c3c5b;fill-opacity:1;stroke:#2c3c5b;stroke-width:0.0264583;stroke-linecap:butt;stroke-linejoin:miter;stroke-miterlimit:85.1;stroke-dasharray:none;stroke-opacity:1"
                       d="m 79.189736,139.47592 a 4.9430094,4.9430094 0 0 1 0.371037,1.87585 4.9430094,4.9430094 0 0 1 -4.942851,4.94337 4.9430094,4.9430094 0 0 1 -1.558561,-0.26355 4.5501876,4.5501876 0 0 0 2.540414,0.78703 4.5501876,4.5501876 0 0 0 4.55011,-4.55011 4.5501876,4.5501876 0 0 0 -0.960149,-2.79259 z" /><rect
                       style="fill:#2c3c5b;fill-opacity:1;stroke:none;stroke-width:1.21682;stroke-linecap:butt;stroke-linejoin:miter;stroke-miterlimit:85.1;stroke-dasharray:none;stroke-opacity:1"
                       id="rect12"
                       width="1.190625"
                       height="23.8125"
                       x="75.126083"
                       y="113.08356" /></g></g><text
                   xml:space="preserve"
                   style="font-size:17.0011px;line-height:0;font-family:Futura;-inkscape-font-specification:Futura;text-align:start;letter-spacing:0.739549px;writing-mode:lr-tb;direction:ltr;text-anchor:start;fill:#0ac5a8;fill-opacity:1;stroke:none;stroke-width:0.765051;stroke-linecap:butt;stroke-linejoin:miter;stroke-miterlimit:85.1;stroke-dasharray:none;stroke-opacity:1"
                   x="54.394478"
                   y="151.7988"
                   id="text16"
                   transform="rotate(0.08013001)"><tspan
                     id="tspan16"
                     style="font-style:normal;font-variant:normal;font-weight:800;font-stretch:normal;font-size:17.0011px;font-family:'Montserrat Alternates';-inkscape-font-specification:'Montserrat Alternates Ultra-Bold';fill:#0ac5a8;fill-opacity:1;stroke-width:0.765051"
                     x="54.394478"
                     y="151.7988"
                     sodipodi:role="line"><tspan
   style="font-style:normal;font-variant:normal;font-weight:800;font-stretch:normal;font-size:17.0011px;font-family:'Montserrat Alternates';-inkscape-font-specification:'Montserrat Alternates Ultra-Bold';fill:#2c3c5b;fill-opacity:1"
   id="tspan17">Klas</tspan>Lab</tspan></text></g><rect
                 style="fill:#2c3c5b;fill-opacity:1;stroke:none;stroke-width:0.882945;stroke-linecap:butt;stroke-linejoin:miter;stroke-miterlimit:85.1;stroke-dasharray:none;stroke-opacity:1"
                 id="rect18"
                 width="58.659756"
                 height="3.0165038"
                 x="70.759125"
                 y="105.37621"
                 transform="rotate(0.08013001)"
                 ry="1.5082519"
                 rx="28.970135" /></g></g></g></g></g></g></svg>
